M48
; DRILL file {KiCad 8.0.9-8.0.9-0~ubuntu24.04.1} date 2026-04-12T05:25:03+0000
; FORMAT={-:-/ absolute / metric / decimal}
; #@! TF.CreationDate,2026-04-12T05:25:03+00:00
; #@! TF.GenerationSoftware,Kicad,Pcbnew,8.0.9-8.0.9-0~ubuntu24.04.1
; #@! TF.FileFunction,MixedPlating,1,4
FMAT,2
METRIC
; #@! TA.AperFunction,Plated,PTH,ComponentDrill
T1C0.600
; #@! TA.AperFunction,Plated,PTH,ComponentDrill
T2C0.750
; #@! TA.AperFunction,Plated,PTH,ComponentDrill
T3C1.000
; #@! TA.AperFunction,NonPlated,NPTH,ComponentDrill
T4C0.650
%
G90
G05
T2
X95.1Y-27.4
X97.1Y-27.4
T3
X92.0Y-74.46
X92.0Y-77.0
X94.54Y-74.46
X94.54Y-77.0
X97.08Y-74.46
X97.08Y-77.0
X99.62Y-74.46
X99.62Y-77.0
X104.7Y-70.65
X104.7Y-74.46
X104.7Y-77.0
X107.24Y-70.65
X107.24Y-74.46
X107.24Y-77.0
X109.78Y-70.65
X109.78Y-74.46
X109.78Y-77.0
X112.32Y-70.65
X112.32Y-74.46
X112.32Y-77.0
X114.86Y-70.65
X114.86Y-74.46
X114.86Y-77.0
X117.4Y-70.65
X117.4Y-74.46
X117.4Y-77.0
X122.48Y-31.22
X122.48Y-33.76
X122.48Y-36.3
X122.48Y-38.84
X122.48Y-41.38
X122.48Y-43.92
X122.48Y-46.46
X122.48Y-49.0
X122.48Y-51.54
X122.48Y-54.08
X122.48Y-56.62
X122.48Y-59.16
X122.48Y-61.7
X122.48Y-64.24
X122.48Y-66.78
X122.48Y-69.32
X122.48Y-71.86
X122.48Y-74.4
X125.02Y-31.22
X125.02Y-33.76
X125.02Y-36.3
X125.02Y-38.84
X125.02Y-41.38
X125.02Y-43.92
X125.02Y-46.46
X125.02Y-49.0
X125.02Y-51.54
X125.02Y-54.08
X125.02Y-56.62
X125.02Y-59.16
X125.02Y-61.7
X125.02Y-64.24
X125.02Y-66.78
X125.02Y-69.32
X125.02Y-71.86
X125.02Y-74.4
T4
X94.6Y-33.61
X94.6Y-39.39
T1
X91.25Y-32.18G85X90.65Y-32.18
G05
X91.25Y-40.82G85X90.65Y-40.82
G05
X95.68Y-32.18G85X94.58Y-32.18
G05
X95.68Y-40.82G85X94.58Y-40.82
G05
M30
