%TF.GenerationSoftware,KiCad,Pcbnew,8.0.9-8.0.9-0~ubuntu24.04.1*%
%TF.CreationDate,2026-04-12T05:25:03+00:00*%
%TF.ProjectId,caravel-mvp,63617261-7665-46c2-9d6d-76702e6b6963,1.1*%
%TF.SameCoordinates,PX54e0840PY4b571c0*%
%TF.FileFunction,Copper,L4,Bot*%
%TF.FilePolarity,Positive*%
%FSLAX46Y46*%
G04 Gerber Fmt 4.6, Leading zero omitted, Abs format (unit mm)*
G04 Created by KiCad (PCBNEW 8.0.9-8.0.9-0~ubuntu24.04.1) date 2026-04-12 05:25:03*
%MOMM*%
%LPD*%
G01*
G04 APERTURE LIST*
G04 Aperture macros list*
%AMRoundRect*
0 Rectangle with rounded corners*
0 $1 Rounding radius*
0 $2 $3 $4 $5 $6 $7 $8 $9 X,Y pos of 4 corners*
0 Add a 4 corners polygon primitive as box body*
4,1,4,$2,$3,$4,$5,$6,$7,$8,$9,$2,$3,0*
0 Add four circle primitives for the rounded corners*
1,1,$1+$1,$2,$3*
1,1,$1+$1,$4,$5*
1,1,$1+$1,$6,$7*
1,1,$1+$1,$8,$9*
0 Add four rect primitives between the rounded corners*
20,1,$1+$1,$2,$3,$4,$5,0*
20,1,$1+$1,$4,$5,$6,$7,0*
20,1,$1+$1,$6,$7,$8,$9,0*
20,1,$1+$1,$8,$9,$2,$3,0*%
G04 Aperture macros list end*
%TA.AperFunction,ComponentPad*%
%ADD10R,1.700000X1.700000*%
%TD*%
%TA.AperFunction,ComponentPad*%
%ADD11O,1.700000X1.700000*%
%TD*%
%TA.AperFunction,ComponentPad*%
%ADD12C,1.700000*%
%TD*%
%TA.AperFunction,ComponentPad*%
%ADD13RoundRect,0.250000X-0.350000X-0.625000X0.350000X-0.625000X0.350000X0.625000X-0.350000X0.625000X0*%
%TD*%
%TA.AperFunction,ComponentPad*%
%ADD14O,1.200000X1.750000*%
%TD*%
%TA.AperFunction,ComponentPad*%
%ADD15O,2.100000X1.000000*%
%TD*%
%TA.AperFunction,ComponentPad*%
%ADD16O,1.600000X1.000000*%
%TD*%
G04 APERTURE END LIST*
D10*
%TO.P,J5,1,IO1*%
%TO.N,/prj_io7*%
X117400000Y-74460000D03*
D11*
%TO.P,J5,2,IO2*%
%TO.N,/prj_io8*%
X114860000Y-74460000D03*
%TO.P,J5,3,IO3*%
%TO.N,/prj_io9*%
X112320000Y-74460000D03*
%TO.P,J5,4,IO4*%
%TO.N,/prj_io10*%
X109780000Y-74460000D03*
%TO.P,J5,5,GND*%
%TO.N,GND*%
X107240000Y-74460000D03*
D12*
%TO.P,J5,6,VCC*%
%TO.N,+3V3*%
X104700000Y-74460000D03*
D11*
%TO.P,J5,7,IO5*%
%TO.N,/prj_io11*%
X117400000Y-77000000D03*
%TO.P,J5,8,IO6*%
%TO.N,/prj_io12*%
X114860000Y-77000000D03*
%TO.P,J5,9,IO7*%
%TO.N,/prj_io13*%
X112320000Y-77000000D03*
%TO.P,J5,10,IO8*%
%TO.N,/prj_io14*%
X109780000Y-77000000D03*
%TO.P,J5,11,GND*%
%TO.N,GND*%
X107240000Y-77000000D03*
%TO.P,J5,12,VCC*%
%TO.N,+3V3*%
X104700000Y-77000000D03*
%TD*%
D10*
%TO.P,J6,1,Pin_1*%
%TO.N,GND*%
X125020000Y-74400000D03*
D11*
%TO.P,J6,2,Pin_2*%
X122480000Y-74400000D03*
%TO.P,J6,3,Pin_3*%
%TO.N,/prj_io15*%
X125020000Y-71860000D03*
%TO.P,J6,4,Pin_4*%
%TO.N,/prj_io16*%
X122480000Y-71860000D03*
%TO.P,J6,5,Pin_5*%
%TO.N,/prj_io17*%
X125020000Y-69320000D03*
%TO.P,J6,6,Pin_6*%
%TO.N,GND*%
X122480000Y-69320000D03*
%TO.P,J6,7,Pin_7*%
%TO.N,/prj_io19*%
X125020000Y-66780000D03*
%TO.P,J6,8,Pin_8*%
%TO.N,/prj_io18*%
X122480000Y-66780000D03*
%TO.P,J6,9,Pin_9*%
%TO.N,GND*%
X125020000Y-64240000D03*
%TO.P,J6,10,Pin_10*%
%TO.N,/prj_io20*%
X122480000Y-64240000D03*
%TO.P,J6,11,Pin_11*%
%TO.N,/prj_io21*%
X125020000Y-61700000D03*
%TO.P,J6,12,Pin_12*%
%TO.N,/prj_io22*%
X122480000Y-61700000D03*
%TO.P,J6,13,Pin_13*%
%TO.N,/prj_io23*%
X125020000Y-59160000D03*
%TO.P,J6,14,Pin_14*%
%TO.N,GND*%
X122480000Y-59160000D03*
%TO.P,J6,15,Pin_15*%
%TO.N,/prj_io25*%
X125020000Y-56620000D03*
%TO.P,J6,16,Pin_16*%
%TO.N,/prj_io24*%
X122480000Y-56620000D03*
%TO.P,J6,17,Pin_17*%
%TO.N,GND*%
X125020000Y-54080000D03*
%TO.P,J6,18,Pin_18*%
%TO.N,/prj_io26*%
X122480000Y-54080000D03*
%TO.P,J6,19,Pin_19*%
%TO.N,/prj_io27*%
X125020000Y-51540000D03*
%TO.P,J6,20,Pin_20*%
%TO.N,/prj_io28*%
X122480000Y-51540000D03*
%TO.P,J6,21,Pin_21*%
%TO.N,/prj_io29*%
X125020000Y-49000000D03*
%TO.P,J6,22,Pin_22*%
%TO.N,GND*%
X122480000Y-49000000D03*
%TO.P,J6,23,Pin_23*%
%TO.N,/prj_io31*%
X125020000Y-46460000D03*
%TO.P,J6,24,Pin_24*%
%TO.N,/prj_io30*%
X122480000Y-46460000D03*
%TO.P,J6,25,Pin_25*%
%TO.N,GND*%
X125020000Y-43920000D03*
%TO.P,J6,26,Pin_26*%
%TO.N,/prj_io32*%
X122480000Y-43920000D03*
%TO.P,J6,27,Pin_27*%
%TO.N,/prj_io33*%
X125020000Y-41380000D03*
%TO.P,J6,28,Pin_28*%
%TO.N,/prj_io34*%
X122480000Y-41380000D03*
%TO.P,J6,29,Pin_29*%
%TO.N,/prj_io35*%
X125020000Y-38840000D03*
%TO.P,J6,30,Pin_30*%
%TO.N,GND*%
X122480000Y-38840000D03*
%TO.P,J6,31,Pin_31*%
%TO.N,/prj_io37*%
X125020000Y-36300000D03*
%TO.P,J6,32,Pin_32*%
%TO.N,/prj_io36*%
X122480000Y-36300000D03*
%TO.P,J6,33,Pin_33*%
%TO.N,GND*%
X125020000Y-33760000D03*
%TO.P,J6,34,Pin_34*%
%TO.N,+3V3*%
X122480000Y-33760000D03*
%TO.P,J6,35,Pin_35*%
%TO.N,GND*%
X125020000Y-31220000D03*
%TO.P,J6,36,Pin_36*%
%TO.N,+3V3*%
X122480000Y-31220000D03*
%TD*%
D13*
%TO.P,J2,1,Pin_1*%
%TO.N,VBUS*%
X95100000Y-27400000D03*
D14*
%TO.P,J2,2,Pin_2*%
%TO.N,GND*%
X97100000Y-27400000D03*
%TD*%
D10*
%TO.P,J4,1,Pin_1*%
%TO.N,GND*%
X104700000Y-70650000D03*
D11*
%TO.P,J4,2,Pin_2*%
X107240000Y-70650000D03*
%TO.P,J4,3,Pin_3*%
%TO.N,+3V3*%
X109780000Y-70650000D03*
%TO.P,J4,4,Pin_4*%
%TO.N,ser_rx*%
X112320000Y-70650000D03*
%TO.P,J4,5,Pin_5*%
%TO.N,ser_tx*%
X114860000Y-70650000D03*
%TO.P,J4,6,Pin_6*%
%TO.N,Net-(J4-Pin_6)*%
X117400000Y-70650000D03*
%TD*%
D15*
%TO.P,J1,S1,SHIELD*%
%TO.N,Net-(J1-SHIELD)*%
X95130000Y-32180000D03*
D16*
X90950000Y-32180000D03*
D15*
X95130000Y-40820000D03*
D16*
X90950000Y-40820000D03*
%TD*%
D10*
%TO.P,J3,1,Pin_1*%
%TO.N,GND*%
X92000000Y-77000000D03*
D11*
%TO.P,J3,2,Pin_2*%
%TO.N,HK_JTAG*%
X92000000Y-74460000D03*
%TO.P,J3,3,Pin_3*%
%TO.N,GND*%
X94540000Y-77000000D03*
%TO.P,J3,4,Pin_4*%
%TO.N,HK_CSB*%
X94540000Y-74460000D03*
%TO.P,J3,5,Pin_5*%
%TO.N,HK_SDO*%
X97080000Y-77000000D03*
%TO.P,J3,6,Pin_6*%
%TO.N,HK_SCK*%
X97080000Y-74460000D03*
%TO.P,J3,7,Pin_7*%
%TO.N,+3V3*%
X99620000Y-77000000D03*
%TO.P,J3,8,Pin_8*%
%TO.N,HK_SDI*%
X99620000Y-74460000D03*
%TD*%
%TA.AperFunction,Conductor*%
%TO.N,+3V3*%
G36*
X105814925Y-75221373D02*
G01*
X105868119Y-75145405D01*
X105922696Y-75101781D01*
X105992195Y-75094588D01*
X106054549Y-75126110D01*
X106071269Y-75145405D01*
X106201505Y-75331401D01*
X106201506Y-75331402D01*
X106368597Y-75498493D01*
X106368603Y-75498498D01*
X106554158Y-75628425D01*
X106597783Y-75683002D01*
X106604977Y-75752500D01*
X106573454Y-75814855D01*
X106554158Y-75831575D01*
X106368597Y-75961505D01*
X106201508Y-76128594D01*
X106071269Y-76314595D01*
X106016692Y-76358219D01*
X105947193Y-76365412D01*
X105884839Y-76333890D01*
X105868119Y-76314594D01*
X105738113Y-76128926D01*
X105738108Y-76128920D01*
X105571078Y-75961890D01*
X105384968Y-75831573D01*
X105341343Y-75776996D01*
X105334151Y-75707498D01*
X105365673Y-75645143D01*
X105384969Y-75628424D01*
X105461373Y-75574925D01*
X104832533Y-74946086D01*
X104842315Y-74944680D01*
X104973100Y-74884952D01*
X105081761Y-74790798D01*
X105159493Y-74669844D01*
X105183076Y-74589524D01*
X105814925Y-75221373D01*
G37*
%TD.AperFunction*%
%TA.AperFunction,Conductor*%
G36*
X122730000Y-33324498D02*
G01*
X122622315Y-33275320D01*
X122515763Y-33260000D01*
X122444237Y-33260000D01*
X122337685Y-33275320D01*
X122230000Y-33324498D01*
X122230000Y-31655501D01*
X122337685Y-31704680D01*
X122444237Y-31720000D01*
X122515763Y-31720000D01*
X122622315Y-31704680D01*
X122730000Y-31655501D01*
X122730000Y-33324498D01*
G37*
%TD.AperFunction*%
%TA.AperFunction,Conductor*%
G36*
X127003457Y-25400889D02*
G01*
X127119518Y-25413966D01*
X127146583Y-25420143D01*
X127246927Y-25455255D01*
X127271941Y-25467301D01*
X127361955Y-25523860D01*
X127383662Y-25541172D01*
X127458827Y-25616337D01*
X127476140Y-25638046D01*
X127532697Y-25728056D01*
X127544745Y-25753074D01*
X127579855Y-25853414D01*
X127586033Y-25880484D01*
X127592343Y-25936487D01*
X127599110Y-25996535D01*
X127599500Y-26003482D01*
X127599500Y-77996517D01*
X127599110Y-78003465D01*
X127586033Y-78119515D01*
X127579855Y-78146585D01*
X127544745Y-78246925D01*
X127532697Y-78271943D01*
X127476140Y-78361953D01*
X127458827Y-78383662D01*
X127383662Y-78458827D01*
X127361953Y-78476140D01*
X127271943Y-78532697D01*
X127246925Y-78544745D01*
X127146585Y-78579855D01*
X127119516Y-78586033D01*
X127063512Y-78592343D01*
X127003456Y-78599110D01*
X126996518Y-78599500D01*
X117452950Y-78599500D01*
X117397714Y-78583280D01*
X117371482Y-78597069D01*
X117347050Y-78599500D01*
X114912950Y-78599500D01*
X114857714Y-78583280D01*
X114831482Y-78597069D01*
X114807050Y-78599500D01*
X112372950Y-78599500D01*
X112317714Y-78583280D01*
X112291482Y-78597069D01*
X112267050Y-78599500D01*
X109832950Y-78599500D01*
X109777714Y-78583280D01*
X109751482Y-78597069D01*
X109727050Y-78599500D01*
X107292950Y-78599500D01*
X107237714Y-78583280D01*
X107211482Y-78597069D01*
X107187050Y-78599500D01*
X97132950Y-78599500D01*
X97077714Y-78583280D01*
X97051482Y-78597069D01*
X97027050Y-78599500D01*
X94592950Y-78599500D01*
X94537714Y-78583280D01*
X94511482Y-78597069D01*
X94487050Y-78599500D01*
X90003482Y-78599500D01*
X89996543Y-78599110D01*
X89936487Y-78592343D01*
X89880484Y-78586033D01*
X89853414Y-78579855D01*
X89753074Y-78544745D01*
X89728056Y-78532697D01*
X89638046Y-78476140D01*
X89616337Y-78458827D01*
X89541172Y-78383662D01*
X89523859Y-78361953D01*
X89519904Y-78355659D01*
X89467301Y-78271941D01*
X89455254Y-78246925D01*
X89441475Y-78207547D01*
X89420143Y-78146583D01*
X89413966Y-78119514D01*
X89410903Y-78092328D01*
X89400889Y-78003458D01*
X89400500Y-77996517D01*
X89400500Y-74460000D01*
X90644341Y-74460000D01*
X90664936Y-74695403D01*
X90664938Y-74695413D01*
X90726094Y-74923655D01*
X90726096Y-74923659D01*
X90726097Y-74923663D01*
X90797988Y-75077834D01*
X90825965Y-75137830D01*
X90825967Y-75137834D01*
X90919493Y-75271402D01*
X90961504Y-75331400D01*
X90961506Y-75331402D01*
X91083430Y-75453326D01*
X91116915Y-75514649D01*
X91111931Y-75584341D01*
X91070059Y-75640274D01*
X91039083Y-75657189D01*
X90907669Y-75706203D01*
X90907664Y-75706206D01*
X90792455Y-75792452D01*
X90792452Y-75792455D01*
X90706206Y-75907664D01*
X90706202Y-75907671D01*
X90655908Y-76042517D01*
X90649501Y-76102116D01*
X90649500Y-76102135D01*
X90649500Y-77897870D01*
X90649501Y-77897876D01*
X90655908Y-77957483D01*
X90706202Y-78092328D01*
X90706206Y-78092335D01*
X90792452Y-78207544D01*
X90792455Y-78207547D01*
X90907664Y-78293793D01*
X90907671Y-78293797D01*
X91042517Y-78344091D01*
X91042516Y-78344091D01*
X91049444Y-78344835D01*
X91102127Y-78350500D01*
X92897872Y-78350499D01*
X92957483Y-78344091D01*
X93092331Y-78293796D01*
X93207546Y-78207546D01*
X93293796Y-78092331D01*
X93342810Y-77960916D01*
X93384681Y-77904984D01*
X93450145Y-77880566D01*
X93518418Y-77895417D01*
X93546673Y-77916569D01*
X93668599Y-78038495D01*
X93765384Y-78106265D01*
X93862165Y-78174032D01*
X93862167Y-78174033D01*
X93862170Y-78174035D01*
X94076337Y-78273903D01*
X94304592Y-78335063D01*
X94481011Y-78350498D01*
X94497858Y-78351972D01*
X94539655Y-78368322D01*
X94558015Y-78356523D01*
X94582142Y-78351972D01*
X94598989Y-78350498D01*
X94775408Y-78335063D01*
X95003663Y-78273903D01*
X95217830Y-78174035D01*
X95411401Y-78038495D01*
X95578495Y-77871401D01*
X95708425Y-77685842D01*
X95763002Y-77642217D01*
X95832500Y-77635023D01*
X95894855Y-77666546D01*
X95911575Y-77685842D01*
X96041500Y-77871395D01*
X96041505Y-77871401D01*
X96208599Y-78038495D01*
X96305384Y-78106265D01*
X96402165Y-78174032D01*
X96402167Y-78174033D01*
X96402170Y-78174035D01*
X96616337Y-78273903D01*
X96844592Y-78335063D01*
X97021011Y-78350498D01*
X97037858Y-78351972D01*
X97079655Y-78368322D01*
X97098015Y-78356523D01*
X97122142Y-78351972D01*
X97138989Y-78350498D01*
X97315408Y-78335063D01*
X97543663Y-78273903D01*
X97757830Y-78174035D01*
X97951401Y-78038495D01*
X98118495Y-77871401D01*
X98248730Y-77685405D01*
X98303307Y-77641781D01*
X98372805Y-77634587D01*
X98435160Y-77666110D01*
X98451879Y-77685405D01*
X98581890Y-77871078D01*
X98748917Y-78038105D01*
X98942421Y-78173600D01*
X99156507Y-78273429D01*
X99156516Y-78273433D01*
X99370000Y-78330634D01*
X99370000Y-77435501D01*
X99477685Y-77484680D01*
X99584237Y-77500000D01*
X99655763Y-77500000D01*
X99762315Y-77484680D01*
X99870000Y-77435501D01*
X99870000Y-78330633D01*
X100083483Y-78273433D01*
X100083492Y-78273429D01*
X100297578Y-78173600D01*
X100491082Y-78038105D01*
X100658105Y-77871082D01*
X100793600Y-77677578D01*
X100893429Y-77463492D01*
X100893432Y-77463486D01*
X100950636Y-77250000D01*
X100053686Y-77250000D01*
X100079493Y-77209844D01*
X100120000Y-77071889D01*
X100120000Y-76928111D01*
X100079493Y-76790156D01*
X100053686Y-76750000D01*
X100950636Y-76750000D01*
X100950635Y-76749999D01*
X100893432Y-76536513D01*
X100893429Y-76536507D01*
X100793600Y-76322422D01*
X100793599Y-76322420D01*
X100658113Y-76128926D01*
X100658108Y-76128920D01*
X100491078Y-75961890D01*
X100305405Y-75831879D01*
X100261780Y-75777302D01*
X100254588Y-75707804D01*
X100286110Y-75645449D01*
X100305406Y-75628730D01*
X100305843Y-75628424D01*
X100491401Y-75498495D01*
X100658495Y-75331401D01*
X100794035Y-75137830D01*
X100893903Y-74923663D01*
X100955063Y-74695408D01*
X100975659Y-74460001D01*
X103344843Y-74460001D01*
X103365430Y-74695315D01*
X103365432Y-74695326D01*
X103426566Y-74923483D01*
X103426570Y-74923492D01*
X103526400Y-75137579D01*
X103526402Y-75137583D01*
X103585072Y-75221373D01*
X103585073Y-75221373D01*
X104216923Y-74589523D01*
X104240507Y-74669844D01*
X104318239Y-74790798D01*
X104426900Y-74884952D01*
X104557685Y-74944680D01*
X104567466Y-74946086D01*
X103938625Y-75574925D01*
X104015031Y-75628425D01*
X104058655Y-75683002D01*
X104065848Y-75752501D01*
X104034326Y-75814855D01*
X104015031Y-75831575D01*
X103828922Y-75961890D01*
X103828920Y-75961891D01*
X103661891Y-76128920D01*
X103661886Y-76128926D01*
X103526400Y-76322420D01*
X103526399Y-76322422D01*
X103426570Y-76536507D01*
X103426567Y-76536513D01*
X103369364Y-76749999D01*
X103369364Y-76750000D01*
X104266314Y-76750000D01*
X104240507Y-76790156D01*
X104200000Y-76928111D01*
X104200000Y-77071889D01*
X104240507Y-77209844D01*
X104266314Y-77250000D01*
X103369364Y-77250000D01*
X103426567Y-77463486D01*
X103426570Y-77463492D01*
X103526399Y-77677578D01*
X103661894Y-77871082D01*
X103828917Y-78038105D01*
X104022421Y-78173600D01*
X104236507Y-78273429D01*
X104236516Y-78273433D01*
X104450000Y-78330634D01*
X104450000Y-77435501D01*
X104557685Y-77484680D01*
X104664237Y-77500000D01*
X104735763Y-77500000D01*
X104842315Y-77484680D01*
X104950000Y-77435501D01*
X104950000Y-78330634D01*
X105163483Y-78273433D01*
X105163492Y-78273429D01*
X105377578Y-78173600D01*
X105571082Y-78038105D01*
X105738105Y-77871082D01*
X105868119Y-77685405D01*
X105922696Y-77641781D01*
X105992195Y-77634588D01*
X106054549Y-77666110D01*
X106071269Y-77685405D01*
X106201505Y-77871401D01*
X106368599Y-78038495D01*
X106465384Y-78106265D01*
X106562165Y-78174032D01*
X106562167Y-78174033D01*
X106562170Y-78174035D01*
X106776337Y-78273903D01*
X107004592Y-78335063D01*
X107181011Y-78350498D01*
X107197858Y-78351972D01*
X107239655Y-78368322D01*
X107258015Y-78356523D01*
X107282142Y-78351972D01*
X107298989Y-78350498D01*
X107475408Y-78335063D01*
X107703663Y-78273903D01*
X107917830Y-78174035D01*
X108111401Y-78038495D01*
X108278495Y-77871401D01*
X108408425Y-77685842D01*
X108463002Y-77642217D01*
X108532500Y-77635023D01*
X108594855Y-77666546D01*
X108611575Y-77685842D01*
X108741500Y-77871395D01*
X108741505Y-77871401D01*
X108908599Y-78038495D01*
X109005384Y-78106265D01*
X109102165Y-78174032D01*
X109102167Y-78174033D01*
X109102170Y-78174035D01*
X109316337Y-78273903D01*
X109544592Y-78335063D01*
X109721011Y-78350498D01*
X109737858Y-78351972D01*
X109779655Y-78368322D01*
X109798015Y-78356523D01*
X109822142Y-78351972D01*
X109838989Y-78350498D01*
X110015408Y-78335063D01*
X110243663Y-78273903D01*
X110457830Y-78174035D01*
X110651401Y-78038495D01*
X110818495Y-77871401D01*
X110948425Y-77685842D01*
X111003002Y-77642217D01*
X111072500Y-77635023D01*
X111134855Y-77666546D01*
X111151575Y-77685842D01*
X111281500Y-77871395D01*
X111281505Y-77871401D01*
X111448599Y-78038495D01*
X111545384Y-78106265D01*
X111642165Y-78174032D01*
X111642167Y-78174033D01*
X111642170Y-78174035D01*
X111856337Y-78273903D01*
X112084592Y-78335063D01*
X112261011Y-78350498D01*
X112277858Y-78351972D01*
X112319655Y-78368322D01*
X112338015Y-78356523D01*
X112362142Y-78351972D01*
X112378989Y-78350498D01*
X112555408Y-78335063D01*
X112783663Y-78273903D01*
X112997830Y-78174035D01*
X113191401Y-78038495D01*
X113358495Y-77871401D01*
X113488425Y-77685842D01*
X113543002Y-77642217D01*
X113612500Y-77635023D01*
X113674855Y-77666546D01*
X113691575Y-77685842D01*
X113821500Y-77871395D01*
X113821505Y-77871401D01*
X113988599Y-78038495D01*
X114085384Y-78106265D01*
X114182165Y-78174032D01*
X114182167Y-78174033D01*
X114182170Y-78174035D01*
X114396337Y-78273903D01*
X114624592Y-78335063D01*
X114801011Y-78350498D01*
X114817858Y-78351972D01*
X114859655Y-78368322D01*
X114878015Y-78356523D01*
X114902142Y-78351972D01*
X114918989Y-78350498D01*
X115095408Y-78335063D01*
X115323663Y-78273903D01*
X115537830Y-78174035D01*
X115731401Y-78038495D01*
X115898495Y-77871401D01*
X116028425Y-77685842D01*
X116083002Y-77642217D01*
X116152500Y-77635023D01*
X116214855Y-77666546D01*
X116231575Y-77685842D01*
X116361500Y-77871395D01*
X116361505Y-77871401D01*
X116528599Y-78038495D01*
X116625384Y-78106265D01*
X116722165Y-78174032D01*
X116722167Y-78174033D01*
X116722170Y-78174035D01*
X116936337Y-78273903D01*
X117164592Y-78335063D01*
X117341011Y-78350498D01*
X117357858Y-78351972D01*
X117399655Y-78368322D01*
X117418015Y-78356523D01*
X117442142Y-78351972D01*
X117458989Y-78350498D01*
X117635408Y-78335063D01*
X117863663Y-78273903D01*
X118077830Y-78174035D01*
X118271401Y-78038495D01*
X118438495Y-77871401D01*
X118574035Y-77677830D01*
X118673903Y-77463663D01*
X118735063Y-77235408D01*
X118755659Y-77000000D01*
X118735063Y-76764592D01*
X118673903Y-76536337D01*
X118574035Y-76322171D01*
X118568730Y-76314595D01*
X118438496Y-76128600D01*
X118379954Y-76070058D01*
X118316567Y-76006671D01*
X118283084Y-75945351D01*
X118288068Y-75875659D01*
X118329939Y-75819725D01*
X118360915Y-75802810D01*
X118492331Y-75753796D01*
X118607546Y-75667546D01*
X118693796Y-75552331D01*
X118744091Y-75417483D01*
X118750500Y-75357873D01*
X118750499Y-74400000D01*
X121124341Y-74400000D01*
X121144936Y-74635403D01*
X121144938Y-74635413D01*
X121206094Y-74863655D01*
X121206096Y-74863659D01*
X121206097Y-74863663D01*
X121233992Y-74923483D01*
X121305965Y-75077830D01*
X121305967Y-75077834D01*
X121406475Y-75221373D01*
X121441505Y-75271401D01*
X121608599Y-75438495D01*
X121694285Y-75498493D01*
X121802165Y-75574032D01*
X121802167Y-75574033D01*
X121802170Y-75574035D01*
X122016337Y-75673903D01*
X122016343Y-75673904D01*
X122016344Y-75673905D01*
X122071285Y-75688626D01*
X122244592Y-75735063D01*
X122421034Y-75750500D01*
X122479999Y-75755659D01*
X122480000Y-75755659D01*
X122480001Y-75755659D01*
X122538966Y-75750500D01*
X122715408Y-75735063D01*
X122943663Y-75673903D01*
X123157830Y-75574035D01*
X123351401Y-75438495D01*
X123473329Y-75316566D01*
X123534648Y-75283084D01*
X123604340Y-75288068D01*
X123660274Y-75329939D01*
X123677189Y-75360917D01*
X123726202Y-75492328D01*
X123726206Y-75492335D01*
X123812452Y-75607544D01*
X123812455Y-75607547D01*
X123927664Y-75693793D01*
X123927671Y-75693797D01*
X124062517Y-75744091D01*
X124062516Y-75744091D01*
X124069444Y-75744835D01*
X124122127Y-75750500D01*
X125917872Y-75750499D01*
X125977483Y-75744091D01*
X126112331Y-75693796D01*
X126227546Y-75607546D01*
X126313796Y-75492331D01*
X126364091Y-75357483D01*
X126370500Y-75297873D01*
X126370499Y-73502128D01*
X126364091Y-73442517D01*
X126362810Y-73439083D01*
X126313797Y-73307671D01*
X126313793Y-73307664D01*
X126227547Y-73192455D01*
X126227544Y-73192452D01*
X126112335Y-73106206D01*
X126112328Y-73106202D01*
X125980917Y-73057189D01*
X125924983Y-73015318D01*
X125900566Y-72949853D01*
X125915418Y-72881580D01*
X125936563Y-72853332D01*
X126058495Y-72731401D01*
X126194035Y-72537830D01*
X126293903Y-72323663D01*
X126355063Y-72095408D01*
X126375659Y-71860000D01*
X126355063Y-71624592D01*
X126293903Y-71396337D01*
X126194035Y-71182171D01*
X126188425Y-71174158D01*
X126058494Y-70988597D01*
X125891402Y-70821506D01*
X125891396Y-70821501D01*
X125705842Y-70691575D01*
X125662217Y-70636998D01*
X125655023Y-70567500D01*
X125686546Y-70505145D01*
X125705842Y-70488425D01*
X125774777Y-70440156D01*
X125891401Y-70358495D01*
X126058495Y-70191401D01*
X126194035Y-69997830D01*
X126293903Y-69783663D01*
X126355063Y-69555408D01*
X126375659Y-69320000D01*
X126355063Y-69084592D01*
X126293903Y-68856337D01*
X126194035Y-68642171D01*
X126188425Y-68634158D01*
X126058494Y-68448597D01*
X125891402Y-68281506D01*
X125891396Y-68281501D01*
X125705842Y-68151575D01*
X125662217Y-68096998D01*
X125655023Y-68027500D01*
X125686546Y-67965145D01*
X125705842Y-67948425D01*
X125728026Y-67932891D01*
X125891401Y-67818495D01*
X126058495Y-67651401D01*
X126194035Y-67457830D01*
X126293903Y-67243663D01*
X126355063Y-67015408D01*
X126375659Y-66780000D01*
X126355063Y-66544592D01*
X126293903Y-66316337D01*
X126194035Y-66102171D01*
X126188425Y-66094158D01*
X126058494Y-65908597D01*
X125891402Y-65741506D01*
X125891396Y-65741501D01*
X125705842Y-65611575D01*
X125662217Y-65556998D01*
X125655023Y-65487500D01*
X125686546Y-65425145D01*
X125705842Y-65408425D01*
X125728026Y-65392891D01*
X125891401Y-65278495D01*
X126058495Y-65111401D01*
X126194035Y-64917830D01*
X126293903Y-64703663D01*
X126355063Y-64475408D01*
X126375659Y-64240000D01*
X126355063Y-64004592D01*
X126293903Y-63776337D01*
X126194035Y-63562171D01*
X126188425Y-63554158D01*
X126058494Y-63368597D01*
X125891402Y-63201506D01*
X125891396Y-63201501D01*
X125705842Y-63071575D01*
X125662217Y-63016998D01*
X125655023Y-62947500D01*
X125686546Y-62885145D01*
X125705842Y-62868425D01*
X125728026Y-62852891D01*
X125891401Y-62738495D01*
X126058495Y-62571401D01*
X126194035Y-62377830D01*
X126293903Y-62163663D01*
X126355063Y-61935408D01*
X126375659Y-61700000D01*
X126355063Y-61464592D01*
X126293903Y-61236337D01*
X126194035Y-61022171D01*
X126188425Y-61014158D01*
X126058494Y-60828597D01*
X125891402Y-60661506D01*
X125891396Y-60661501D01*
X125705842Y-60531575D01*
X125662217Y-60476998D01*
X125655023Y-60407500D01*
X125686546Y-60345145D01*
X125705842Y-60328425D01*
X125728026Y-60312891D01*
X125891401Y-60198495D01*
X126058495Y-60031401D01*
X126194035Y-59837830D01*
X126293903Y-59623663D01*
X126355063Y-59395408D01*
X126375659Y-59160000D01*
X126355063Y-58924592D01*
X126293903Y-58696337D01*
X126194035Y-58482171D01*
X126188425Y-58474158D01*
X126058494Y-58288597D01*
X125891402Y-58121506D01*
X125891396Y-58121501D01*
X125705842Y-57991575D01*
X125662217Y-57936998D01*
X125655023Y-57867500D01*
X125686546Y-57805145D01*
X125705842Y-57788425D01*
X125728026Y-57772891D01*
X125891401Y-57658495D01*
X126058495Y-57491401D01*
X126194035Y-57297830D01*
X126293903Y-57083663D01*
X126355063Y-56855408D01*
X126375659Y-56620000D01*
X126355063Y-56384592D01*
X126293903Y-56156337D01*
X126194035Y-55942171D01*
X126188425Y-55934158D01*
X126058494Y-55748597D01*
X125891402Y-55581506D01*
X125891396Y-55581501D01*
X125705842Y-55451575D01*
X125662217Y-55396998D01*
X125655023Y-55327500D01*
X125686546Y-55265145D01*
X125705842Y-55248425D01*
X125728026Y-55232891D01*
X125891401Y-55118495D01*
X126058495Y-54951401D01*
X126194035Y-54757830D01*
X126293903Y-54543663D01*
X126355063Y-54315408D01*
X126375659Y-54080000D01*
X126355063Y-53844592D01*
X126293903Y-53616337D01*
X126194035Y-53402171D01*
X126188425Y-53394158D01*
X126058494Y-53208597D01*
X125891402Y-53041506D01*
X125891396Y-53041501D01*
X125705842Y-52911575D01*
X125662217Y-52856998D01*
X125655023Y-52787500D01*
X125686546Y-52725145D01*
X125705842Y-52708425D01*
X125728026Y-52692891D01*
X125891401Y-52578495D01*
X126058495Y-52411401D01*
X126194035Y-52217830D01*
X126293903Y-52003663D01*
X126355063Y-51775408D01*
X126375659Y-51540000D01*
X126355063Y-51304592D01*
X126293903Y-51076337D01*
X126194035Y-50862171D01*
X126188425Y-50854158D01*
X126058494Y-50668597D01*
X125891402Y-50501506D01*
X125891396Y-50501501D01*
X125705842Y-50371575D01*
X125662217Y-50316998D01*
X125655023Y-50247500D01*
X125686546Y-50185145D01*
X125705842Y-50168425D01*
X125728026Y-50152891D01*
X125891401Y-50038495D01*
X126058495Y-49871401D01*
X126194035Y-49677830D01*
X126293903Y-49463663D01*
X126355063Y-49235408D01*
X126375659Y-49000000D01*
X126355063Y-48764592D01*
X126293903Y-48536337D01*
X126194035Y-48322171D01*
X126188425Y-48314158D01*
X126058494Y-48128597D01*
X125891402Y-47961506D01*
X125891396Y-47961501D01*
X125705842Y-47831575D01*
X125662217Y-47776998D01*
X125655023Y-47707500D01*
X125686546Y-47645145D01*
X125705842Y-47628425D01*
X125728026Y-47612891D01*
X125891401Y-47498495D01*
X126058495Y-47331401D01*
X126194035Y-47137830D01*
X126293903Y-46923663D01*
X126355063Y-46695408D01*
X126375659Y-46460000D01*
X126355063Y-46224592D01*
X126293903Y-45996337D01*
X126194035Y-45782171D01*
X126188425Y-45774158D01*
X126058494Y-45588597D01*
X125891402Y-45421506D01*
X125891396Y-45421501D01*
X125705842Y-45291575D01*
X125662217Y-45236998D01*
X125655023Y-45167500D01*
X125686546Y-45105145D01*
X125705842Y-45088425D01*
X125728026Y-45072891D01*
X125891401Y-44958495D01*
X126058495Y-44791401D01*
X126194035Y-44597830D01*
X126293903Y-44383663D01*
X126355063Y-44155408D01*
X126375659Y-43920000D01*
X126355063Y-43684592D01*
X126293903Y-43456337D01*
X126194035Y-43242171D01*
X126188425Y-43234158D01*
X126058494Y-43048597D01*
X125891402Y-42881506D01*
X125891396Y-42881501D01*
X125705842Y-42751575D01*
X125662217Y-42696998D01*
X125655023Y-42627500D01*
X125686546Y-42565145D01*
X125705842Y-42548425D01*
X125728026Y-42532891D01*
X125891401Y-42418495D01*
X126058495Y-42251401D01*
X126194035Y-42057830D01*
X126293903Y-41843663D01*
X126355063Y-41615408D01*
X126375659Y-41380000D01*
X126355063Y-41144592D01*
X126293903Y-40916337D01*
X126194035Y-40702171D01*
X126188425Y-40694158D01*
X126058494Y-40508597D01*
X125891402Y-40341506D01*
X125891396Y-40341501D01*
X125705842Y-40211575D01*
X125662217Y-40156998D01*
X125655023Y-40087500D01*
X125686546Y-40025145D01*
X125705842Y-40008425D01*
X125802556Y-39940705D01*
X125891401Y-39878495D01*
X126058495Y-39711401D01*
X126194035Y-39517830D01*
X126293903Y-39303663D01*
X126355063Y-39075408D01*
X126375659Y-38840000D01*
X126355063Y-38604592D01*
X126293903Y-38376337D01*
X126194035Y-38162171D01*
X126188425Y-38154158D01*
X126058494Y-37968597D01*
X125891402Y-37801506D01*
X125891396Y-37801501D01*
X125705842Y-37671575D01*
X125662217Y-37616998D01*
X125655023Y-37547500D01*
X125686546Y-37485145D01*
X125705842Y-37468425D01*
X125728026Y-37452891D01*
X125891401Y-37338495D01*
X126058495Y-37171401D01*
X126194035Y-36977830D01*
X126293903Y-36763663D01*
X126355063Y-36535408D01*
X126375659Y-36300000D01*
X126355063Y-36064592D01*
X126293903Y-35836337D01*
X126194035Y-35622171D01*
X126188425Y-35614158D01*
X126058494Y-35428597D01*
X125891402Y-35261506D01*
X125891396Y-35261501D01*
X125705842Y-35131575D01*
X125662217Y-35076998D01*
X125655023Y-35007500D01*
X125686546Y-34945145D01*
X125705842Y-34928425D01*
X125728026Y-34912891D01*
X125891401Y-34798495D01*
X126058495Y-34631401D01*
X126194035Y-34437830D01*
X126293903Y-34223663D01*
X126355063Y-33995408D01*
X126375659Y-33760000D01*
X126355063Y-33524592D01*
X126293903Y-33296337D01*
X126194035Y-33082171D01*
X126188731Y-33074595D01*
X126058494Y-32888597D01*
X125891402Y-32721506D01*
X125891396Y-32721501D01*
X125705842Y-32591575D01*
X125662217Y-32536998D01*
X125655023Y-32467500D01*
X125686546Y-32405145D01*
X125705842Y-32388425D01*
X125890531Y-32259104D01*
X125891401Y-32258495D01*
X126058495Y-32091401D01*
X126194035Y-31897830D01*
X126293903Y-31683663D01*
X126355063Y-31455408D01*
X126375659Y-31220000D01*
X126355063Y-30984592D01*
X126293903Y-30756337D01*
X126194035Y-30542171D01*
X126188731Y-30534595D01*
X126058494Y-30348597D01*
X125891402Y-30181506D01*
X125891395Y-30181501D01*
X125697834Y-30045967D01*
X125697830Y-30045965D01*
X125697828Y-30045964D01*
X125483663Y-29946097D01*
X125483659Y-29946096D01*
X125483655Y-29946094D01*
X125255413Y-29884938D01*
X125255403Y-29884936D01*
X125020001Y-29864341D01*
X125019999Y-29864341D01*
X124784596Y-29884936D01*
X124784586Y-29884938D01*
X124556344Y-29946094D01*
X124556335Y-29946098D01*
X124342171Y-30045964D01*
X124342169Y-30045965D01*
X124148597Y-30181505D01*
X123981508Y-30348594D01*
X123851269Y-30534595D01*
X123796692Y-30578219D01*
X123727193Y-30585412D01*
X123664839Y-30553890D01*
X123648119Y-30534594D01*
X123518113Y-30348926D01*
X123518108Y-30348920D01*
X123351082Y-30181894D01*
X123157578Y-30046399D01*
X122943492Y-29946570D01*
X122943486Y-29946567D01*
X122730000Y-29889364D01*
X122730000Y-30784498D01*
X122622315Y-30735320D01*
X122515763Y-30720000D01*
X122444237Y-30720000D01*
X122337685Y-30735320D01*
X122230000Y-30784498D01*
X122230000Y-29889364D01*
X122229999Y-29889364D01*
X122016513Y-29946567D01*
X122016507Y-29946570D01*
X121802422Y-30046399D01*
X121802420Y-30046400D01*
X121608926Y-30181886D01*
X121608920Y-30181891D01*
X121441891Y-30348920D01*
X121441886Y-30348926D01*
X121306400Y-30542420D01*
X121306399Y-30542422D01*
X121206570Y-30756507D01*
X121206567Y-30756513D01*
X121149364Y-30969999D01*
X121149364Y-30970000D01*
X122046314Y-30970000D01*
X122020507Y-31010156D01*
X121980000Y-31148111D01*
X121980000Y-31291889D01*
X122020507Y-31429844D01*
X122046314Y-31470000D01*
X121149364Y-31470000D01*
X121206567Y-31683486D01*
X121206570Y-31683492D01*
X121306399Y-31897578D01*
X121441894Y-32091082D01*
X121608917Y-32258105D01*
X121795031Y-32388425D01*
X121838656Y-32443003D01*
X121845848Y-32512501D01*
X121814326Y-32574856D01*
X121795031Y-32591575D01*
X121608922Y-32721890D01*
X121608920Y-32721891D01*
X121441891Y-32888920D01*
X121441886Y-32888926D01*
X121306400Y-33082420D01*
X121306399Y-33082422D01*
X121206570Y-33296507D01*
X121206567Y-33296513D01*
X121149364Y-33509999D01*
X121149364Y-33510000D01*
X122046314Y-33510000D01*
X122020507Y-33550156D01*
X121980000Y-33688111D01*
X121980000Y-33831889D01*
X122020507Y-33969844D01*
X122046314Y-34010000D01*
X121149364Y-34010000D01*
X121206567Y-34223486D01*
X121206570Y-34223492D01*
X121306399Y-34437578D01*
X121441894Y-34631082D01*
X121608917Y-34798105D01*
X121794595Y-34928119D01*
X121838219Y-34982696D01*
X121845412Y-35052195D01*
X121813890Y-35114549D01*
X121794595Y-35131269D01*
X121608594Y-35261508D01*
X121441505Y-35428597D01*
X121305965Y-35622169D01*
X121305964Y-35622171D01*
X121206098Y-35836335D01*
X121206094Y-35836344D01*
X121144938Y-36064586D01*
X121144936Y-36064596D01*
X121124341Y-36299999D01*
X121124341Y-36300000D01*
X121144936Y-36535403D01*
X121144938Y-36535413D01*
X121206094Y-36763655D01*
X121206096Y-36763659D01*
X121206097Y-36763663D01*
X121210000Y-36772032D01*
X121305965Y-36977830D01*
X121305967Y-36977834D01*
X121414281Y-37132521D01*
X121441501Y-37171396D01*
X121441506Y-37171402D01*
X121608597Y-37338493D01*
X121608603Y-37338498D01*
X121794158Y-37468425D01*
X121837783Y-37523002D01*
X121844977Y-37592500D01*
X121813454Y-37654855D01*
X121794158Y-37671575D01*
X121608597Y-37801505D01*
X121441505Y-37968597D01*
X121305965Y-38162169D01*
X121305964Y-38162171D01*
X121206098Y-38376335D01*
X121206094Y-38376344D01*
X121144938Y-38604586D01*
X121144936Y-38604596D01*
X121124341Y-38839999D01*
X121124341Y-38840000D01*
X121144936Y-39075403D01*
X121144938Y-39075413D01*
X121206094Y-39303655D01*
X121206096Y-39303659D01*
X121206097Y-39303663D01*
X121246357Y-39390000D01*
X121305965Y-39517830D01*
X121305967Y-39517834D01*
X121397144Y-39648047D01*
X121441501Y-39711396D01*
X121441506Y-39711402D01*
X121608597Y-39878493D01*
X121608603Y-39878498D01*
X121794158Y-40008425D01*
X121837783Y-40063002D01*
X121844977Y-40132500D01*
X121813454Y-40194855D01*
X121794158Y-40211575D01*
X121608597Y-40341505D01*
X121441505Y-40508597D01*
X121305965Y-40702169D01*
X121305964Y-40702171D01*
X121206098Y-40916335D01*
X121206094Y-40916344D01*
X121144938Y-41144586D01*
X121144936Y-41144596D01*
X121124341Y-41379999D01*
X121124341Y-41380000D01*
X121144936Y-41615403D01*
X121144938Y-41615413D01*
X121206094Y-41843655D01*
X121206096Y-41843659D01*
X121206097Y-41843663D01*
X121210000Y-41852032D01*
X121305965Y-42057830D01*
X121305967Y-42057834D01*
X121414281Y-42212521D01*
X121441501Y-42251396D01*
X121441506Y-42251402D01*
X121608597Y-42418493D01*
X121608603Y-42418498D01*
X121794158Y-42548425D01*
X121837783Y-42603002D01*
X121844977Y-42672500D01*
X121813454Y-42734855D01*
X121794158Y-42751575D01*
X121608597Y-42881505D01*
X121441505Y-43048597D01*
X121305965Y-43242169D01*
X121305964Y-43242171D01*
X121206098Y-43456335D01*
X121206094Y-43456344D01*
X121144938Y-43684586D01*
X121144936Y-43684596D01*
X121124341Y-43919999D01*
X121124341Y-43920000D01*
X121144936Y-44155403D01*
X121144938Y-44155413D01*
X121206094Y-44383655D01*
X121206096Y-44383659D01*
X121206097Y-44383663D01*
X121210000Y-44392032D01*
X121305965Y-44597830D01*
X121305967Y-44597834D01*
X121414281Y-44752521D01*
X121441501Y-44791396D01*
X121441506Y-44791402D01*
X121608597Y-44958493D01*
X121608603Y-44958498D01*
X121794158Y-45088425D01*
X121837783Y-45143002D01*
X121844977Y-45212500D01*
X121813454Y-45274855D01*
X121794158Y-45291575D01*
X121608597Y-45421505D01*
X121441505Y-45588597D01*
X121305965Y-45782169D01*
X121305964Y-45782171D01*
X121206098Y-45996335D01*
X121206094Y-45996344D01*
X121144938Y-46224586D01*
X121144936Y-46224596D01*
X121124341Y-46459999D01*
X121124341Y-46460000D01*
X121144936Y-46695403D01*
X121144938Y-46695413D01*
X121206094Y-46923655D01*
X121206096Y-46923659D01*
X121206097Y-46923663D01*
X121210000Y-46932032D01*
X121305965Y-47137830D01*
X121305967Y-47137834D01*
X121414281Y-47292521D01*
X121441501Y-47331396D01*
X121441506Y-47331402D01*
X121608597Y-47498493D01*
X121608603Y-47498498D01*
X121794158Y-47628425D01*
X121837783Y-47683002D01*
X121844977Y-47752500D01*
X121813454Y-47814855D01*
X121794158Y-47831575D01*
X121608597Y-47961505D01*
X121441505Y-48128597D01*
X121305965Y-48322169D01*
X121305964Y-48322171D01*
X121206098Y-48536335D01*
X121206094Y-48536344D01*
X121144938Y-48764586D01*
X121144936Y-48764596D01*
X121124341Y-48999999D01*
X121124341Y-49000000D01*
X121144936Y-49235403D01*
X121144938Y-49235413D01*
X121206094Y-49463655D01*
X121206096Y-49463659D01*
X121206097Y-49463663D01*
X121210000Y-49472032D01*
X121305965Y-49677830D01*
X121305967Y-49677834D01*
X121414281Y-49832521D01*
X121441501Y-49871396D01*
X121441506Y-49871402D01*
X121608597Y-50038493D01*
X121608603Y-50038498D01*
X121794158Y-50168425D01*
X121837783Y-50223002D01*
X121844977Y-50292500D01*
X121813454Y-50354855D01*
X121794158Y-50371575D01*
X121608597Y-50501505D01*
X121441505Y-50668597D01*
X121305965Y-50862169D01*
X121305964Y-50862171D01*
X121206098Y-51076335D01*
X121206094Y-51076344D01*
X121144938Y-51304586D01*
X121144936Y-51304596D01*
X121124341Y-51539999D01*
X121124341Y-51540000D01*
X121144936Y-51775403D01*
X121144938Y-51775413D01*
X121206094Y-52003655D01*
X121206096Y-52003659D01*
X121206097Y-52003663D01*
X121210000Y-52012032D01*
X121305965Y-52217830D01*
X121305967Y-52217834D01*
X121414281Y-52372521D01*
X121441501Y-52411396D01*
X121441506Y-52411402D01*
X121608597Y-52578493D01*
X121608603Y-52578498D01*
X121794158Y-52708425D01*
X121837783Y-52763002D01*
X121844977Y-52832500D01*
X121813454Y-52894855D01*
X121794158Y-52911575D01*
X121608597Y-53041505D01*
X121441505Y-53208597D01*
X121305965Y-53402169D01*
X121305964Y-53402171D01*
X121206098Y-53616335D01*
X121206094Y-53616344D01*
X121144938Y-53844586D01*
X121144936Y-53844596D01*
X121124341Y-54079999D01*
X121124341Y-54080000D01*
X121144936Y-54315403D01*
X121144938Y-54315413D01*
X121206094Y-54543655D01*
X121206096Y-54543659D01*
X121206097Y-54543663D01*
X121210000Y-54552032D01*
X121305965Y-54757830D01*
X121305967Y-54757834D01*
X121414281Y-54912521D01*
X121441501Y-54951396D01*
X121441506Y-54951402D01*
X121608597Y-55118493D01*
X121608603Y-55118498D01*
X121794158Y-55248425D01*
X121837783Y-55303002D01*
X121844977Y-55372500D01*
X121813454Y-55434855D01*
X121794158Y-55451575D01*
X121608597Y-55581505D01*
X121441505Y-55748597D01*
X121305965Y-55942169D01*
X121305964Y-55942171D01*
X121206098Y-56156335D01*
X121206094Y-56156344D01*
X121144938Y-56384586D01*
X121144936Y-56384596D01*
X121124341Y-56619999D01*
X121124341Y-56620000D01*
X121144936Y-56855403D01*
X121144938Y-56855413D01*
X121206094Y-57083655D01*
X121206096Y-57083659D01*
X121206097Y-57083663D01*
X121210000Y-57092032D01*
X121305965Y-57297830D01*
X121305967Y-57297834D01*
X121414281Y-57452521D01*
X121441501Y-57491396D01*
X121441506Y-57491402D01*
X121608597Y-57658493D01*
X121608603Y-57658498D01*
X121794158Y-57788425D01*
X121837783Y-57843002D01*
X121844977Y-57912500D01*
X121813454Y-57974855D01*
X121794158Y-57991575D01*
X121608597Y-58121505D01*
X121441505Y-58288597D01*
X121305965Y-58482169D01*
X121305964Y-58482171D01*
X121206098Y-58696335D01*
X121206094Y-58696344D01*
X121144938Y-58924586D01*
X121144936Y-58924596D01*
X121124341Y-59159999D01*
X121124341Y-59160000D01*
X121144936Y-59395403D01*
X121144938Y-59395413D01*
X121206094Y-59623655D01*
X121206096Y-59623659D01*
X121206097Y-59623663D01*
X121210000Y-59632032D01*
X121305965Y-59837830D01*
X121305967Y-59837834D01*
X121414281Y-59992521D01*
X121441501Y-60031396D01*
X121441506Y-60031402D01*
X121608597Y-60198493D01*
X121608603Y-60198498D01*
X121794158Y-60328425D01*
X121837783Y-60383002D01*
X121844977Y-60452500D01*
X121813454Y-60514855D01*
X121794158Y-60531575D01*
X121608597Y-60661505D01*
X121441505Y-60828597D01*
X121305965Y-61022169D01*
X121305964Y-61022171D01*
X121206098Y-61236335D01*
X121206094Y-61236344D01*
X121144938Y-61464586D01*
X121144936Y-61464596D01*
X121124341Y-61699999D01*
X121124341Y-61700000D01*
X121144936Y-61935403D01*
X121144938Y-61935413D01*
X121206094Y-62163655D01*
X121206096Y-62163659D01*
X121206097Y-62163663D01*
X121210000Y-62172032D01*
X121305965Y-62377830D01*
X121305967Y-62377834D01*
X121414281Y-62532521D01*
X121441501Y-62571396D01*
X121441506Y-62571402D01*
X121608597Y-62738493D01*
X121608603Y-62738498D01*
X121794158Y-62868425D01*
X121837783Y-62923002D01*
X121844977Y-62992500D01*
X121813454Y-63054855D01*
X121794158Y-63071575D01*
X121608597Y-63201505D01*
X121441505Y-63368597D01*
X121305965Y-63562169D01*
X121305964Y-63562171D01*
X121206098Y-63776335D01*
X121206094Y-63776344D01*
X121144938Y-64004586D01*
X121144936Y-64004596D01*
X121124341Y-64239999D01*
X121124341Y-64240000D01*
X121144936Y-64475403D01*
X121144938Y-64475413D01*
X121206094Y-64703655D01*
X121206096Y-64703659D01*
X121206097Y-64703663D01*
X121210000Y-64712032D01*
X121305965Y-64917830D01*
X121305967Y-64917834D01*
X121414281Y-65072521D01*
X121441501Y-65111396D01*
X121441506Y-65111402D01*
X121608597Y-65278493D01*
X121608603Y-65278498D01*
X121794158Y-65408425D01*
X121837783Y-65463002D01*
X121844977Y-65532500D01*
X121813454Y-65594855D01*
X121794158Y-65611575D01*
X121608597Y-65741505D01*
X121441505Y-65908597D01*
X121305965Y-66102169D01*
X121305964Y-66102171D01*
X121206098Y-66316335D01*
X121206094Y-66316344D01*
X121144938Y-66544586D01*
X121144936Y-66544596D01*
X121124341Y-66779999D01*
X121124341Y-66780000D01*
X121144936Y-67015403D01*
X121144938Y-67015413D01*
X121206094Y-67243655D01*
X121206096Y-67243659D01*
X121206097Y-67243663D01*
X121210000Y-67252032D01*
X121305965Y-67457830D01*
X121305967Y-67457834D01*
X121414281Y-67612521D01*
X121441501Y-67651396D01*
X121441506Y-67651402D01*
X121608597Y-67818493D01*
X121608603Y-67818498D01*
X121794158Y-67948425D01*
X121837783Y-68003002D01*
X121844977Y-68072500D01*
X121813454Y-68134855D01*
X121794158Y-68151575D01*
X121608597Y-68281505D01*
X121441505Y-68448597D01*
X121305965Y-68642169D01*
X121305964Y-68642171D01*
X121206098Y-68856335D01*
X121206094Y-68856344D01*
X121144938Y-69084586D01*
X121144936Y-69084596D01*
X121124341Y-69319999D01*
X121124341Y-69320000D01*
X121144936Y-69555403D01*
X121144938Y-69555413D01*
X121206094Y-69783655D01*
X121206096Y-69783659D01*
X121206097Y-69783663D01*
X121290467Y-69964594D01*
X121305965Y-69997830D01*
X121305967Y-69997834D01*
X121412516Y-70150000D01*
X121441501Y-70191396D01*
X121441506Y-70191402D01*
X121608597Y-70358493D01*
X121608603Y-70358498D01*
X121794158Y-70488425D01*
X121837783Y-70543002D01*
X121844977Y-70612500D01*
X121813454Y-70674855D01*
X121794158Y-70691575D01*
X121608597Y-70821505D01*
X121441505Y-70988597D01*
X121305965Y-71182169D01*
X121305964Y-71182171D01*
X121206098Y-71396335D01*
X121206094Y-71396344D01*
X121144938Y-71624586D01*
X121144936Y-71624596D01*
X121124341Y-71859999D01*
X121124341Y-71860000D01*
X121144936Y-72095403D01*
X121144938Y-72095413D01*
X121206094Y-72323655D01*
X121206096Y-72323659D01*
X121206097Y-72323663D01*
X121210000Y-72332032D01*
X121305965Y-72537830D01*
X121305967Y-72537834D01*
X121414281Y-72692521D01*
X121441501Y-72731396D01*
X121441506Y-72731402D01*
X121608597Y-72898493D01*
X121608603Y-72898498D01*
X121794158Y-73028425D01*
X121837783Y-73083002D01*
X121844977Y-73152500D01*
X121813454Y-73214855D01*
X121794158Y-73231575D01*
X121608597Y-73361505D01*
X121441505Y-73528597D01*
X121305965Y-73722169D01*
X121305964Y-73722171D01*
X121206098Y-73936335D01*
X121206094Y-73936344D01*
X121144938Y-74164586D01*
X121144936Y-74164596D01*
X121124341Y-74399999D01*
X121124341Y-74400000D01*
X118750499Y-74400000D01*
X118750499Y-73562128D01*
X118744091Y-73502517D01*
X118743946Y-73502129D01*
X118693797Y-73367671D01*
X118693793Y-73367664D01*
X118607547Y-73252455D01*
X118607544Y-73252452D01*
X118492335Y-73166206D01*
X118492328Y-73166202D01*
X118357482Y-73115908D01*
X118357483Y-73115908D01*
X118297883Y-73109501D01*
X118297881Y-73109500D01*
X118297873Y-73109500D01*
X118297864Y-73109500D01*
X116502129Y-73109500D01*
X116502123Y-73109501D01*
X116442516Y-73115908D01*
X116307671Y-73166202D01*
X116307664Y-73166206D01*
X116192455Y-73252452D01*
X116192452Y-73252455D01*
X116106206Y-73367664D01*
X116106203Y-73367669D01*
X116057189Y-73499083D01*
X116015317Y-73555016D01*
X115949853Y-73579433D01*
X115881580Y-73564581D01*
X115853326Y-73543430D01*
X115731402Y-73421506D01*
X115731395Y-73421501D01*
X115537834Y-73285967D01*
X115537830Y-73285965D01*
X115537828Y-73285964D01*
X115323663Y-73186097D01*
X115323659Y-73186096D01*
X115323655Y-73186094D01*
X115095413Y-73124938D01*
X115095403Y-73124936D01*
X114860001Y-73104341D01*
X114859999Y-73104341D01*
X114624596Y-73124936D01*
X114624586Y-73124938D01*
X114396344Y-73186094D01*
X114396335Y-73186098D01*
X114182171Y-73285964D01*
X114182169Y-73285965D01*
X113988597Y-73421505D01*
X113821505Y-73588597D01*
X113691575Y-73774158D01*
X113636998Y-73817783D01*
X113567500Y-73824977D01*
X113505145Y-73793454D01*
X113488425Y-73774158D01*
X113358494Y-73588597D01*
X113191402Y-73421506D01*
X113191395Y-73421501D01*
X112997834Y-73285967D01*
X112997830Y-73285965D01*
X112997828Y-73285964D01*
X112783663Y-73186097D01*
X112783659Y-73186096D01*
X112783655Y-73186094D01*
X112555413Y-73124938D01*
X112555403Y-73124936D01*
X112320001Y-73104341D01*
X112319999Y-73104341D01*
X112084596Y-73124936D01*
X112084586Y-73124938D01*
X111856344Y-73186094D01*
X111856335Y-73186098D01*
X111642171Y-73285964D01*
X111642169Y-73285965D01*
X111448597Y-73421505D01*
X111281505Y-73588597D01*
X111151575Y-73774158D01*
X111096998Y-73817783D01*
X111027500Y-73824977D01*
X110965145Y-73793454D01*
X110948425Y-73774158D01*
X110818494Y-73588597D01*
X110651402Y-73421506D01*
X110651395Y-73421501D01*
X110457834Y-73285967D01*
X110457830Y-73285965D01*
X110457828Y-73285964D01*
X110243663Y-73186097D01*
X110243659Y-73186096D01*
X110243655Y-73186094D01*
X110015413Y-73124938D01*
X110015403Y-73124936D01*
X109780001Y-73104341D01*
X109779999Y-73104341D01*
X109544596Y-73124936D01*
X109544586Y-73124938D01*
X109316344Y-73186094D01*
X109316335Y-73186098D01*
X109102171Y-73285964D01*
X109102169Y-73285965D01*
X108908597Y-73421505D01*
X108741505Y-73588597D01*
X108611575Y-73774158D01*
X108556998Y-73817783D01*
X108487500Y-73824977D01*
X108425145Y-73793454D01*
X108408425Y-73774158D01*
X108278494Y-73588597D01*
X108111402Y-73421506D01*
X108111395Y-73421501D01*
X107917834Y-73285967D01*
X107917830Y-73285965D01*
X107917828Y-73285964D01*
X107703663Y-73186097D01*
X107703659Y-73186096D01*
X107703655Y-73186094D01*
X107475413Y-73124938D01*
X107475403Y-73124936D01*
X107240001Y-73104341D01*
X107239999Y-73104341D01*
X107004596Y-73124936D01*
X107004586Y-73124938D01*
X106776344Y-73186094D01*
X106776335Y-73186098D01*
X106562171Y-73285964D01*
X106562169Y-73285965D01*
X106368597Y-73421505D01*
X106201505Y-73588597D01*
X106071269Y-73774595D01*
X106016692Y-73818220D01*
X105947194Y-73825414D01*
X105884839Y-73793891D01*
X105868119Y-73774595D01*
X105814925Y-73698626D01*
X105814925Y-73698625D01*
X105183076Y-74330475D01*
X105159493Y-74250156D01*
X105081761Y-74129202D01*
X104973100Y-74035048D01*
X104842315Y-73975320D01*
X104832533Y-73973913D01*
X105461373Y-73345073D01*
X105461373Y-73345072D01*
X105377583Y-73286402D01*
X105377579Y-73286400D01*
X105163492Y-73186570D01*
X105163483Y-73186566D01*
X104935326Y-73125432D01*
X104935315Y-73125430D01*
X104700002Y-73104843D01*
X104699998Y-73104843D01*
X104464684Y-73125430D01*
X104464673Y-73125432D01*
X104236516Y-73186566D01*
X104236507Y-73186570D01*
X104022419Y-73286401D01*
X103938625Y-73345072D01*
X104567466Y-73973913D01*
X104557685Y-73975320D01*
X104426900Y-74035048D01*
X104318239Y-74129202D01*
X104240507Y-74250156D01*
X104216923Y-74330476D01*
X103585072Y-73698625D01*
X103526401Y-73782419D01*
X103426570Y-73996507D01*
X103426566Y-73996516D01*
X103365432Y-74224673D01*
X103365430Y-74224684D01*
X103344843Y-74459998D01*
X103344843Y-74460001D01*
X100975659Y-74460001D01*
X100975659Y-74460000D01*
X100955063Y-74224592D01*
X100893903Y-73996337D01*
X100794035Y-73782171D01*
X100788731Y-73774595D01*
X100658494Y-73588597D01*
X100491402Y-73421506D01*
X100491395Y-73421501D01*
X100297834Y-73285967D01*
X100297830Y-73285965D01*
X100297828Y-73285964D01*
X100083663Y-73186097D01*
X100083659Y-73186096D01*
X100083655Y-73186094D01*
X99855413Y-73124938D01*
X99855403Y-73124936D01*
X99620001Y-73104341D01*
X99619999Y-73104341D01*
X99384596Y-73124936D01*
X99384586Y-73124938D01*
X99156344Y-73186094D01*
X99156335Y-73186098D01*
X98942171Y-73285964D01*
X98942169Y-73285965D01*
X98748597Y-73421505D01*
X98581505Y-73588597D01*
X98451575Y-73774158D01*
X98396998Y-73817783D01*
X98327500Y-73824977D01*
X98265145Y-73793454D01*
X98248425Y-73774158D01*
X98118494Y-73588597D01*
X97951402Y-73421506D01*
X97951395Y-73421501D01*
X97757834Y-73285967D01*
X97757830Y-73285965D01*
X97757828Y-73285964D01*
X97543663Y-73186097D01*
X97543659Y-73186096D01*
X97543655Y-73186094D01*
X97315413Y-73124938D01*
X97315403Y-73124936D01*
X97080001Y-73104341D01*
X97079999Y-73104341D01*
X96844596Y-73124936D01*
X96844586Y-73124938D01*
X96616344Y-73186094D01*
X96616335Y-73186098D01*
X96402171Y-73285964D01*
X96402169Y-73285965D01*
X96208597Y-73421505D01*
X96041505Y-73588597D01*
X95911575Y-73774158D01*
X95856998Y-73817783D01*
X95787500Y-73824977D01*
X95725145Y-73793454D01*
X95708425Y-73774158D01*
X95578494Y-73588597D01*
X95411402Y-73421506D01*
X95411395Y-73421501D01*
X95217834Y-73285967D01*
X95217830Y-73285965D01*
X95217828Y-73285964D01*
X95003663Y-73186097D01*
X95003659Y-73186096D01*
X95003655Y-73186094D01*
X94775413Y-73124938D01*
X94775403Y-73124936D01*
X94540001Y-73104341D01*
X94539999Y-73104341D01*
X94304596Y-73124936D01*
X94304586Y-73124938D01*
X94076344Y-73186094D01*
X94076335Y-73186098D01*
X93862171Y-73285964D01*
X93862169Y-73285965D01*
X93668597Y-73421505D01*
X93501505Y-73588597D01*
X93371575Y-73774158D01*
X93316998Y-73817783D01*
X93247500Y-73824977D01*
X93185145Y-73793454D01*
X93168425Y-73774158D01*
X93038494Y-73588597D01*
X92871402Y-73421506D01*
X92871395Y-73421501D01*
X92677834Y-73285967D01*
X92677830Y-73285965D01*
X92677828Y-73285964D01*
X92463663Y-73186097D01*
X92463659Y-73186096D01*
X92463655Y-73186094D01*
X92235413Y-73124938D01*
X92235403Y-73124936D01*
X92000001Y-73104341D01*
X91999999Y-73104341D01*
X91764596Y-73124936D01*
X91764586Y-73124938D01*
X91536344Y-73186094D01*
X91536335Y-73186098D01*
X91322171Y-73285964D01*
X91322169Y-73285965D01*
X91128597Y-73421505D01*
X90961505Y-73588597D01*
X90825965Y-73782169D01*
X90825964Y-73782171D01*
X90726098Y-73996335D01*
X90726094Y-73996344D01*
X90664938Y-74224586D01*
X90664936Y-74224596D01*
X90644341Y-74459999D01*
X90644341Y-74460000D01*
X89400500Y-74460000D01*
X89400500Y-71547870D01*
X103349500Y-71547870D01*
X103349501Y-71547876D01*
X103355908Y-71607483D01*
X103406202Y-71742328D01*
X103406206Y-71742335D01*
X103492452Y-71857544D01*
X103492455Y-71857547D01*
X103607664Y-71943793D01*
X103607671Y-71943797D01*
X103742517Y-71994091D01*
X103742516Y-71994091D01*
X103749444Y-71994835D01*
X103802127Y-72000500D01*
X105597872Y-72000499D01*
X105657483Y-71994091D01*
X105792331Y-71943796D01*
X105907546Y-71857546D01*
X105993796Y-71742331D01*
X106042810Y-71610916D01*
X106084681Y-71554984D01*
X106150145Y-71530566D01*
X106218418Y-71545417D01*
X106246673Y-71566569D01*
X106368599Y-71688495D01*
X106465384Y-71756265D01*
X106562165Y-71824032D01*
X106562167Y-71824033D01*
X106562170Y-71824035D01*
X106776337Y-71923903D01*
X107004592Y-71985063D01*
X107181034Y-72000500D01*
X107239999Y-72005659D01*
X107240000Y-72005659D01*
X107240001Y-72005659D01*
X107298966Y-72000500D01*
X107475408Y-71985063D01*
X107703663Y-71923903D01*
X107917830Y-71824035D01*
X108111401Y-71688495D01*
X108278495Y-71521401D01*
X108408730Y-71335405D01*
X108463307Y-71291781D01*
X108532805Y-71284587D01*
X108595160Y-71316110D01*
X108611879Y-71335405D01*
X108741890Y-71521078D01*
X108908917Y-71688105D01*
X109102421Y-71823600D01*
X109316507Y-71923429D01*
X109316516Y-71923433D01*
X109530000Y-71980634D01*
X109530000Y-71085501D01*
X109637685Y-71134680D01*
X109744237Y-71150000D01*
X109815763Y-71150000D01*
X109922315Y-71134680D01*
X110030000Y-71085501D01*
X110030000Y-71980633D01*
X110243483Y-71923433D01*
X110243492Y-71923429D01*
X110457578Y-71823600D01*
X110651082Y-71688105D01*
X110818105Y-71521082D01*
X110948119Y-71335405D01*
X111002696Y-71291781D01*
X111072195Y-71284588D01*
X111134549Y-71316110D01*
X111151269Y-71335405D01*
X111281505Y-71521401D01*
X111448599Y-71688495D01*
X111545384Y-71756265D01*
X111642165Y-71824032D01*
X111642167Y-71824033D01*
X111642170Y-71824035D01*
X111856337Y-71923903D01*
X112084592Y-71985063D01*
X112261034Y-72000500D01*
X112319999Y-72005659D01*
X112320000Y-72005659D01*
X112320001Y-72005659D01*
X112378966Y-72000500D01*
X112555408Y-71985063D01*
X112783663Y-71923903D01*
X112997830Y-71824035D01*
X113191401Y-71688495D01*
X113358495Y-71521401D01*
X113488425Y-71335842D01*
X113543002Y-71292217D01*
X113612500Y-71285023D01*
X113674855Y-71316546D01*
X113691575Y-71335842D01*
X113821500Y-71521395D01*
X113821505Y-71521401D01*
X113988599Y-71688495D01*
X114085384Y-71756265D01*
X114182165Y-71824032D01*
X114182167Y-71824033D01*
X114182170Y-71824035D01*
X114396337Y-71923903D01*
X114624592Y-71985063D01*
X114801034Y-72000500D01*
X114859999Y-72005659D01*
X114860000Y-72005659D01*
X114860001Y-72005659D01*
X114918966Y-72000500D01*
X115095408Y-71985063D01*
X115323663Y-71923903D01*
X115537830Y-71824035D01*
X115731401Y-71688495D01*
X115898495Y-71521401D01*
X116028425Y-71335842D01*
X116083002Y-71292217D01*
X116152500Y-71285023D01*
X116214855Y-71316546D01*
X116231575Y-71335842D01*
X116361500Y-71521395D01*
X116361505Y-71521401D01*
X116528599Y-71688495D01*
X116625384Y-71756265D01*
X116722165Y-71824032D01*
X116722167Y-71824033D01*
X116722170Y-71824035D01*
X116936337Y-71923903D01*
X117164592Y-71985063D01*
X117341034Y-72000500D01*
X117399999Y-72005659D01*
X117400000Y-72005659D01*
X117400001Y-72005659D01*
X117458966Y-72000500D01*
X117635408Y-71985063D01*
X117863663Y-71923903D01*
X118077830Y-71824035D01*
X118271401Y-71688495D01*
X118438495Y-71521401D01*
X118574035Y-71327830D01*
X118673903Y-71113663D01*
X118735063Y-70885408D01*
X118755659Y-70650000D01*
X118754521Y-70636998D01*
X118746298Y-70543002D01*
X118735063Y-70414592D01*
X118673903Y-70186337D01*
X118574035Y-69972171D01*
X118568731Y-69964595D01*
X118438494Y-69778597D01*
X118271402Y-69611506D01*
X118271395Y-69611501D01*
X118077834Y-69475967D01*
X118077830Y-69475965D01*
X118077828Y-69475964D01*
X117863663Y-69376097D01*
X117863659Y-69376096D01*
X117863655Y-69376094D01*
X117635413Y-69314938D01*
X117635403Y-69314936D01*
X117400001Y-69294341D01*
X117399999Y-69294341D01*
X117164596Y-69314936D01*
X117164586Y-69314938D01*
X116936344Y-69376094D01*
X116936335Y-69376098D01*
X116722171Y-69475964D01*
X116722169Y-69475965D01*
X116528597Y-69611505D01*
X116361505Y-69778597D01*
X116231575Y-69964158D01*
X116176998Y-70007783D01*
X116107500Y-70014977D01*
X116045145Y-69983454D01*
X116028425Y-69964158D01*
X115898494Y-69778597D01*
X115731402Y-69611506D01*
X115731395Y-69611501D01*
X115537834Y-69475967D01*
X115537830Y-69475965D01*
X115537828Y-69475964D01*
X115323663Y-69376097D01*
X115323659Y-69376096D01*
X115323655Y-69376094D01*
X115095413Y-69314938D01*
X115095403Y-69314936D01*
X114860001Y-69294341D01*
X114859999Y-69294341D01*
X114624596Y-69314936D01*
X114624586Y-69314938D01*
X114396344Y-69376094D01*
X114396335Y-69376098D01*
X114182171Y-69475964D01*
X114182169Y-69475965D01*
X113988597Y-69611505D01*
X113821505Y-69778597D01*
X113691575Y-69964158D01*
X113636998Y-70007783D01*
X113567500Y-70014977D01*
X113505145Y-69983454D01*
X113488425Y-69964158D01*
X113358494Y-69778597D01*
X113191402Y-69611506D01*
X113191395Y-69611501D01*
X112997834Y-69475967D01*
X112997830Y-69475965D01*
X112997828Y-69475964D01*
X112783663Y-69376097D01*
X112783659Y-69376096D01*
X112783655Y-69376094D01*
X112555413Y-69314938D01*
X112555403Y-69314936D01*
X112320001Y-69294341D01*
X112319999Y-69294341D01*
X112084596Y-69314936D01*
X112084586Y-69314938D01*
X111856344Y-69376094D01*
X111856335Y-69376098D01*
X111642171Y-69475964D01*
X111642169Y-69475965D01*
X111448597Y-69611505D01*
X111281508Y-69778594D01*
X111151269Y-69964595D01*
X111096692Y-70008219D01*
X111027193Y-70015412D01*
X110964839Y-69983890D01*
X110948119Y-69964594D01*
X110818113Y-69778926D01*
X110818108Y-69778920D01*
X110651082Y-69611894D01*
X110457578Y-69476399D01*
X110243492Y-69376570D01*
X110243486Y-69376567D01*
X110030000Y-69319364D01*
X110030000Y-70214498D01*
X109922315Y-70165320D01*
X109815763Y-70150000D01*
X109744237Y-70150000D01*
X109637685Y-70165320D01*
X109530000Y-70214498D01*
X109530000Y-69319364D01*
X109529999Y-69319364D01*
X109316513Y-69376567D01*
X109316507Y-69376570D01*
X109102422Y-69476399D01*
X109102420Y-69476400D01*
X108908926Y-69611886D01*
X108908920Y-69611891D01*
X108741891Y-69778920D01*
X108741890Y-69778922D01*
X108611880Y-69964595D01*
X108557303Y-70008219D01*
X108487804Y-70015412D01*
X108425450Y-69983890D01*
X108408730Y-69964594D01*
X108278494Y-69778597D01*
X108111402Y-69611506D01*
X108111395Y-69611501D01*
X107917834Y-69475967D01*
X107917830Y-69475965D01*
X107917828Y-69475964D01*
X107703663Y-69376097D01*
X107703659Y-69376096D01*
X107703655Y-69376094D01*
X107475413Y-69314938D01*
X107475403Y-69314936D01*
X107240001Y-69294341D01*
X107239999Y-69294341D01*
X107004596Y-69314936D01*
X107004586Y-69314938D01*
X106776344Y-69376094D01*
X106776335Y-69376098D01*
X106562171Y-69475964D01*
X106562169Y-69475965D01*
X106368600Y-69611503D01*
X106246673Y-69733430D01*
X106185350Y-69766914D01*
X106115658Y-69761930D01*
X106059725Y-69720058D01*
X106042810Y-69689081D01*
X105993797Y-69557671D01*
X105993793Y-69557664D01*
X105907547Y-69442455D01*
X105907544Y-69442452D01*
X105792335Y-69356206D01*
X105792328Y-69356202D01*
X105657482Y-69305908D01*
X105657483Y-69305908D01*
X105597883Y-69299501D01*
X105597881Y-69299500D01*
X105597873Y-69299500D01*
X105597864Y-69299500D01*
X103802129Y-69299500D01*
X103802123Y-69299501D01*
X103742516Y-69305908D01*
X103607671Y-69356202D01*
X103607664Y-69356206D01*
X103492455Y-69442452D01*
X103492452Y-69442455D01*
X103406206Y-69557664D01*
X103406202Y-69557671D01*
X103355908Y-69692517D01*
X103349501Y-69752116D01*
X103349500Y-69752135D01*
X103349500Y-71547870D01*
X89400500Y-71547870D01*
X89400500Y-40899104D01*
X89413112Y-40856150D01*
X89411095Y-40852632D01*
X89636063Y-40852632D01*
X89643477Y-40864169D01*
X89647070Y-40880327D01*
X89676442Y-41072063D01*
X89676445Y-41072075D01*
X89747111Y-41262881D01*
X89747115Y-41262888D01*
X89854745Y-41435567D01*
X89854747Y-41435569D01*
X89854748Y-41435571D01*
X89994941Y-41583053D01*
X90123344Y-41672424D01*
X90161949Y-41699294D01*
X90161950Y-41699294D01*
X90161951Y-41699295D01*
X90348942Y-41779540D01*
X90548259Y-41820500D01*
X91300743Y-41820500D01*
X91452439Y-41805074D01*
X91646579Y-41744162D01*
X91646580Y-41744161D01*
X91646588Y-41744159D01*
X91824502Y-41645409D01*
X91978895Y-41512866D01*
X92103448Y-41351958D01*
X92193060Y-41169271D01*
X92244063Y-40972285D01*
X92249203Y-40870936D01*
X93575631Y-40870936D01*
X93606442Y-41072063D01*
X93606445Y-41072075D01*
X93677111Y-41262881D01*
X93677115Y-41262888D01*
X93784745Y-41435567D01*
X93784747Y-41435569D01*
X93784748Y-41435571D01*
X93924941Y-41583053D01*
X94053344Y-41672424D01*
X94091949Y-41699294D01*
X94091950Y-41699294D01*
X94091951Y-41699295D01*
X94278942Y-41779540D01*
X94478259Y-41820500D01*
X95730743Y-41820500D01*
X95882439Y-41805074D01*
X96076579Y-41744162D01*
X96076580Y-41744161D01*
X96076588Y-41744159D01*
X96254502Y-41645409D01*
X96408895Y-41512866D01*
X96533448Y-41351958D01*
X96623060Y-41169271D01*
X96674063Y-40972285D01*
X96684369Y-40769064D01*
X96653556Y-40567929D01*
X96582886Y-40377113D01*
X96479706Y-40211575D01*
X96475254Y-40204432D01*
X96475250Y-40204427D01*
X96335061Y-40056949D01*
X96335060Y-40056948D01*
X96335059Y-40056947D01*
X96236587Y-39988409D01*
X96168050Y-39940705D01*
X95981056Y-39860459D01*
X95781741Y-39819500D01*
X95230591Y-39819500D01*
X95163552Y-39799815D01*
X95117797Y-39747011D01*
X95107853Y-39677853D01*
X95116030Y-39648047D01*
X95117879Y-39643580D01*
X95160687Y-39540236D01*
X95180466Y-39390000D01*
X95160687Y-39239764D01*
X95102698Y-39099767D01*
X95010451Y-38979549D01*
X94890233Y-38887302D01*
X94890229Y-38887300D01*
X94826801Y-38861027D01*
X94750236Y-38829313D01*
X94736171Y-38827461D01*
X94637727Y-38814500D01*
X94637720Y-38814500D01*
X94562280Y-38814500D01*
X94562272Y-38814500D01*
X94449764Y-38829313D01*
X94449763Y-38829313D01*
X94309770Y-38887300D01*
X94309767Y-38887301D01*
X94309767Y-38887302D01*
X94189549Y-38979549D01*
X94115994Y-39075408D01*
X94097300Y-39099770D01*
X94039313Y-39239763D01*
X94039312Y-39239765D01*
X94019534Y-39389999D01*
X94019534Y-39390000D01*
X94039312Y-39540234D01*
X94039313Y-39540236D01*
X94097300Y-39680230D01*
X94097302Y-39680234D01*
X94151491Y-39750853D01*
X94176686Y-39816022D01*
X94162648Y-39884467D01*
X94113834Y-39934457D01*
X94113294Y-39934759D01*
X94005496Y-39994592D01*
X94005495Y-39994592D01*
X93851106Y-40127132D01*
X93851104Y-40127134D01*
X93726554Y-40288037D01*
X93726553Y-40288040D01*
X93636940Y-40470728D01*
X93585937Y-40667714D01*
X93575631Y-40870936D01*
X92249203Y-40870936D01*
X92254369Y-40769064D01*
X92223556Y-40567929D01*
X92152886Y-40377113D01*
X92049706Y-40211575D01*
X92045254Y-40204432D01*
X92045250Y-40204427D01*
X91905061Y-40056949D01*
X91905060Y-40056948D01*
X91905059Y-40056947D01*
X91806587Y-39988409D01*
X91738050Y-39940705D01*
X91551056Y-39860459D01*
X91351741Y-39819500D01*
X90599258Y-39819500D01*
X90599257Y-39819500D01*
X90447560Y-39834925D01*
X90253420Y-39895837D01*
X90253405Y-39895844D01*
X90075500Y-39994589D01*
X90075495Y-39994592D01*
X89921106Y-40127132D01*
X89921104Y-40127134D01*
X89796554Y-40288037D01*
X89796553Y-40288040D01*
X89706940Y-40470728D01*
X89681775Y-40567924D01*
X89655937Y-40667715D01*
X89650798Y-40769064D01*
X89648341Y-40817507D01*
X89636063Y-40852632D01*
X89411095Y-40852632D01*
X89403906Y-40840091D01*
X89400500Y-40811227D01*
X89400500Y-32259104D01*
X89413112Y-32216150D01*
X89411095Y-32212632D01*
X89636063Y-32212632D01*
X89643477Y-32224169D01*
X89647068Y-32240322D01*
X89649946Y-32259104D01*
X89676442Y-32432063D01*
X89676445Y-32432075D01*
X89747111Y-32622881D01*
X89747115Y-32622888D01*
X89854745Y-32795567D01*
X89854749Y-32795572D01*
X89943173Y-32888594D01*
X89994941Y-32943053D01*
X90123344Y-33032424D01*
X90161949Y-33059294D01*
X90161950Y-33059294D01*
X90161951Y-33059295D01*
X90348942Y-33139540D01*
X90548259Y-33180500D01*
X91300743Y-33180500D01*
X91452439Y-33165074D01*
X91646579Y-33104162D01*
X91646580Y-33104161D01*
X91646588Y-33104159D01*
X91824502Y-33005409D01*
X91978895Y-32872866D01*
X92103448Y-32711958D01*
X92193060Y-32529271D01*
X92244063Y-32332285D01*
X92249203Y-32230936D01*
X93575631Y-32230936D01*
X93606442Y-32432063D01*
X93606445Y-32432075D01*
X93677111Y-32622881D01*
X93677115Y-32622888D01*
X93784745Y-32795567D01*
X93784749Y-32795572D01*
X93873173Y-32888594D01*
X93924941Y-32943053D01*
X94091951Y-33059295D01*
X94099758Y-33062645D01*
X94153603Y-33107170D01*
X94174828Y-33173737D01*
X94156695Y-33241213D01*
X94149237Y-33252083D01*
X94097302Y-33319766D01*
X94097300Y-33319769D01*
X94039313Y-33459763D01*
X94039312Y-33459765D01*
X94019534Y-33609999D01*
X94019534Y-33610000D01*
X94039312Y-33760234D01*
X94039313Y-33760236D01*
X94097302Y-33900233D01*
X94189549Y-34020451D01*
X94309767Y-34112698D01*
X94449764Y-34170687D01*
X94556586Y-34184750D01*
X94558117Y-34184952D01*
X94562280Y-34185500D01*
X94562287Y-34185500D01*
X94637713Y-34185500D01*
X94637720Y-34185500D01*
X94750236Y-34170687D01*
X94890233Y-34112698D01*
X95010451Y-34020451D01*
X95102698Y-33900233D01*
X95160687Y-33760236D01*
X95180466Y-33610000D01*
X95160687Y-33459764D01*
X95116030Y-33351953D01*
X95108561Y-33282483D01*
X95139836Y-33220004D01*
X95199925Y-33184352D01*
X95230591Y-33180500D01*
X95730743Y-33180500D01*
X95882439Y-33165074D01*
X96076579Y-33104162D01*
X96076580Y-33104161D01*
X96076588Y-33104159D01*
X96254502Y-33005409D01*
X96408895Y-32872866D01*
X96533448Y-32711958D01*
X96623060Y-32529271D01*
X96674063Y-32332285D01*
X96684369Y-32129064D01*
X96653556Y-31927929D01*
X96582886Y-31737113D01*
X96475252Y-31564429D01*
X96335059Y-31416947D01*
X96236587Y-31348409D01*
X96168050Y-31300705D01*
X95981056Y-31220459D01*
X95781741Y-31179500D01*
X94529258Y-31179500D01*
X94529257Y-31179500D01*
X94377560Y-31194925D01*
X94183420Y-31255837D01*
X94183405Y-31255844D01*
X94005500Y-31354589D01*
X94005495Y-31354592D01*
X93851106Y-31487132D01*
X93851104Y-31487134D01*
X93726554Y-31648037D01*
X93726553Y-31648040D01*
X93636940Y-31830728D01*
X93585937Y-32027714D01*
X93575631Y-32230936D01*
X92249203Y-32230936D01*
X92254369Y-32129064D01*
X92223556Y-31927929D01*
X92152886Y-31737113D01*
X92045252Y-31564429D01*
X91905059Y-31416947D01*
X91806587Y-31348409D01*
X91738050Y-31300705D01*
X91551056Y-31220459D01*
X91351741Y-31179500D01*
X90599258Y-31179500D01*
X90599257Y-31179500D01*
X90447560Y-31194925D01*
X90253420Y-31255837D01*
X90253405Y-31255844D01*
X90075500Y-31354589D01*
X90075495Y-31354592D01*
X89921106Y-31487132D01*
X89921104Y-31487134D01*
X89796554Y-31648037D01*
X89796553Y-31648040D01*
X89706940Y-31830728D01*
X89681775Y-31927924D01*
X89655937Y-32027715D01*
X89650798Y-32129064D01*
X89648341Y-32177507D01*
X89636063Y-32212632D01*
X89411095Y-32212632D01*
X89403906Y-32200091D01*
X89400500Y-32171227D01*
X89400500Y-28075001D01*
X93999500Y-28075001D01*
X93999501Y-28075018D01*
X94010000Y-28177796D01*
X94010001Y-28177799D01*
X94041443Y-28272682D01*
X94065186Y-28344334D01*
X94157288Y-28493656D01*
X94281344Y-28617712D01*
X94430666Y-28709814D01*
X94597203Y-28764999D01*
X94699991Y-28775500D01*
X95500008Y-28775499D01*
X95500016Y-28775498D01*
X95500019Y-28775498D01*
X95561143Y-28769254D01*
X95602797Y-28764999D01*
X95769334Y-28709814D01*
X95918656Y-28617712D01*
X96042712Y-28493656D01*
X96081815Y-28430258D01*
X96133761Y-28383535D01*
X96202723Y-28372312D01*
X96266806Y-28400155D01*
X96284824Y-28418705D01*
X96299907Y-28437885D01*
X96299909Y-28437887D01*
X96458746Y-28575521D01*
X96640750Y-28680601D01*
X96640752Y-28680601D01*
X96640756Y-28680604D01*
X96839367Y-28749344D01*
X97047398Y-28779254D01*
X97257330Y-28769254D01*
X97461576Y-28719704D01*
X97547199Y-28680601D01*
X97652743Y-28632401D01*
X97652746Y-28632399D01*
X97652753Y-28632396D01*
X97823952Y-28510486D01*
X97839999Y-28493657D01*
X97968985Y-28358379D01*
X97978010Y-28344336D01*
X98082613Y-28181572D01*
X98160725Y-27986457D01*
X98200500Y-27780085D01*
X98200500Y-27072575D01*
X98185528Y-26915782D01*
X98126316Y-26714125D01*
X98030011Y-26527318D01*
X98030009Y-26527316D01*
X98030008Y-26527313D01*
X97900094Y-26362116D01*
X97900090Y-26362112D01*
X97741253Y-26224478D01*
X97559249Y-26119398D01*
X97559245Y-26119396D01*
X97559244Y-26119396D01*
X97360633Y-26050656D01*
X97152602Y-26020746D01*
X97152598Y-26020746D01*
X96942672Y-26030745D01*
X96738421Y-26080296D01*
X96738417Y-26080298D01*
X96547256Y-26167598D01*
X96547251Y-26167601D01*
X96376046Y-26289515D01*
X96376045Y-26289515D01*
X96278249Y-26392082D01*
X96217740Y-26427017D01*
X96147949Y-26423692D01*
X96091035Y-26383164D01*
X96082967Y-26371608D01*
X96077110Y-26362112D01*
X96042712Y-26306344D01*
X95918656Y-26182288D01*
X95825888Y-26125069D01*
X95769336Y-26090187D01*
X95769331Y-26090185D01*
X95739488Y-26080296D01*
X95602797Y-26035001D01*
X95602795Y-26035000D01*
X95500010Y-26024500D01*
X94699998Y-26024500D01*
X94699980Y-26024501D01*
X94597203Y-26035000D01*
X94597200Y-26035001D01*
X94430668Y-26090185D01*
X94430663Y-26090187D01*
X94281342Y-26182289D01*
X94157289Y-26306342D01*
X94065187Y-26455663D01*
X94065186Y-26455666D01*
X94010001Y-26622203D01*
X94010001Y-26622204D01*
X94010000Y-26622204D01*
X93999500Y-26724983D01*
X93999500Y-28075001D01*
X89400500Y-28075001D01*
X89400500Y-26003482D01*
X89400890Y-25996535D01*
X89400891Y-25996534D01*
X89413966Y-25880481D01*
X89420142Y-25853418D01*
X89455256Y-25753068D01*
X89467299Y-25728062D01*
X89523863Y-25638040D01*
X89541168Y-25616341D01*
X89616341Y-25541168D01*
X89638040Y-25523863D01*
X89728062Y-25467299D01*
X89753068Y-25455256D01*
X89853418Y-25420142D01*
X89880481Y-25413966D01*
X89996542Y-25400889D01*
X90003482Y-25400500D01*
X90057583Y-25400500D01*
X126942417Y-25400500D01*
X126996518Y-25400500D01*
X127003457Y-25400889D01*
G37*
%TD.AperFunction*%
%TD*%
M02*
